<?xml version="1.0" encoding="utf-8"?>
<!-- Generator: Adobe Illustrator 15.1.0, SVG Export Plug-In . SVG Version: 6.00 Build 0)  -->
<!DOCTYPE svg PUBLIC "-//W3C//DTD SVG 1.1//EN" "http://www.w3.org/Graphics/SVG/1.1/DTD/svg11.dtd">
<svg version="1.1" id="Layer_1" xmlns="http://www.w3.org/2000/svg" xmlns:xlink="http://www.w3.org/1999/xlink" x="0px" y="0px"
	 width="300px" height="300px" viewBox="0 0 300 300" enable-background="new 0 0 300 300" xml:space="preserve">
<path d="M247.188,226.172c0.351-13.871-5.269-35.121-14.225-59.354c-8.956-24.233-26.516-44.779-34.944-53.735
	c-8.429-8.956-29.501-27.569-45.657-44.602c-16.156-17.034-15.979-31.433-15.979-31.433c-1.405,0.527-4.566,2.985-5.444,15.453
	c-1.229,21.247,11.239,43.549,23.708,69.89c12.466,26.34,14.046,46.358,15.101,62.688c1.054,16.331,1.209,39.678-6.277,48.644
	c-5.599,6.708-21.164,7.867-28.57,5.655c-8.352-2.495-22.75-9.869-32.936-27.254c-10.185-17.385-5.267-52.332-4.038-70.242
	c1.229-17.912,1.053-34.944,1.053-41.617c0-6.673,0-28.097,3.688-47.589s14.343-25.521,20.53-25.649
	c7.918-0.165,12.853,3.513,16.972,3.513c4.498,0,8.335-1.757,13.798-1.757c4.433,0,12.376,2.008,12.376,2.008
	c-5.35-9.951-19.483-12.46-24.919-14.384s-11.874-11.79-23.567-12.11c-12.663-0.347-22.348,9.572-26.604,23.442
	c-4.742,15.453-1.844,62.164-1.844,62.164s-10.553,22.7-18.192,47.723c-11.6,38.002-18.421,96.095-18.421,96.095
	c2.283-8.78,35.296-69.361,35.296-69.361s-2.283,23.883-0.526,40.036c1.756,16.159,10.009,30.029,20.37,39.688
	s45.303,31.783,45.303,31.783c-39.51-8.254-62.864-8.254-62.864-8.254c23.18,3.072,56.017,10.536,78.845,16.857
	c22.829,6.321,36.702,11.238,36.702,11.238c-4.215-2.922-8.604-4.917-8.604-4.917s3.688-34.769,5.091-65.851
	c1.403-31.083-0.701-44.604-0.701-44.604C214.176,186.837,247.188,226.172,247.188,226.172z M127.469,13.338
	c2.968,0,4.956,3.029,4.956,5.139c0,1.622-1.41,3.33-4.622,3.33c-3.211,0-4.25-2.933-4.25-4.309
	C123.554,16.122,124.227,13.338,127.469,13.338z"/>
</svg>
